<?xml version="1.0" encoding="UTF-8"?>
<!DOCTYPE svg PUBLIC "-//W3C//DTD SVG 1.1//EN" "http://www.w3.org/Graphics/SVG/1.1/DTD/svg11.dtd">
<!-- Creator: CorelDRAW X6 -->
<svg xmlns="http://www.w3.org/2000/svg" xml:space="preserve" width="20mm" height="20mm" version="1.1" style="shape-rendering:geometricPrecision; text-rendering:geometricPrecision; image-rendering:optimizeQuality; fill-rule:evenodd; clip-rule:evenodd"
viewBox="0 0 2000 2000"
 xmlns:xlink="http://www.w3.org/1999/xlink">
 <defs>
  <style type="text/css">
   <![CDATA[
    .fil0 {fill:#8d663d}
   ]]>
  </style>
 </defs>
 <g id="图层_x0020_1">
  <metadata id="CorelCorpID_0Corel-Layer"/>
  <path class="fil0" d="M997 24c537,0 973,436 973,973 0,537 -436,973 -973,973 -537,0 -973,-436 -973,-973 0,-537 436,-973 973,-973zm-285 423c-400,71 -533,523 -215,729 17,11 17,10 -9,88l-22 67 80 -43 80 -43 43 10c45,11 102,19 140,19l23 0 -8 -30c-63,-231 154,-459 436,-459l38 0 -8 -27c-62,-216 -323,-356 -579,-310zm-35 202c42,29 45,90 4,117 -66,43 -143,-33 -99,-98 19,-29 66,-39 95,-20zm340 0c70,47 17,155 -61,125 -56,-22 -63,-99 -10,-127 21,-11 53,-10 71,2zm154 171c-198,36 -335,186 -327,359 10,231 281,390 541,319l31 -8 65 35c36,20 66,34 66,32 1,-2 -6,-27 -15,-56 -21,-64 -21,-59 7,-79 313,-224 38,-675 -367,-602zm-8 186c17,12 27,41 19,62 -16,45 -83,49 -102,5 -21,-50 37,-97 83,-67zm277 5c27,26 23,71 -9,87 -49,25 -100,-25 -75,-73 17,-31 59,-38 84,-15z"/>
 </g>
</svg>
